<mxfile host="app.diagrams.net" modified="2021-03-26T10:02:07.267Z" agent="5.0 (X11; Linux x86_64) AppleWebKit/537.36 (KHTML, like Gecko) Chrome/89.0.4389.90 Safari/537.36" etag="cgPhAebpfIbqQIw2opbb" version="14.5.1" type="github">
  <diagram id="rNuMBOFDwmSzHvbY0J08" name="Page-1">
    <mxGraphModel dx="796" dy="462" grid="1" gridSize="10" guides="1" tooltips="1" connect="1" arrows="1" fold="1" page="1" pageScale="1" pageWidth="827" pageHeight="1169" math="0" shadow="0">
      <root>
        <mxCell id="0" />
        <mxCell id="1" parent="0" />
        <mxCell id="kwHS4sfSBA9c8D4gTHH7-10" style="edgeStyle=orthogonalEdgeStyle;rounded=0;orthogonalLoop=1;jettySize=auto;html=1;entryX=0.5;entryY=0;entryDx=0;entryDy=0;" edge="1" parent="1" source="kwHS4sfSBA9c8D4gTHH7-2" target="kwHS4sfSBA9c8D4gTHH7-9">
          <mxGeometry relative="1" as="geometry" />
        </mxCell>
        <mxCell id="kwHS4sfSBA9c8D4gTHH7-11" style="edgeStyle=orthogonalEdgeStyle;rounded=0;orthogonalLoop=1;jettySize=auto;html=1;" edge="1" parent="1" source="kwHS4sfSBA9c8D4gTHH7-2">
          <mxGeometry relative="1" as="geometry">
            <mxPoint x="210" y="280" as="targetPoint" />
          </mxGeometry>
        </mxCell>
        <mxCell id="kwHS4sfSBA9c8D4gTHH7-2" value="water &amp;gt; 120cm" style="rhombus;whiteSpace=wrap;html=1;" vertex="1" parent="1">
          <mxGeometry x="280" y="150" width="240" height="121" as="geometry" />
        </mxCell>
        <mxCell id="kwHS4sfSBA9c8D4gTHH7-7" value="" style="edgeStyle=orthogonalEdgeStyle;rounded=0;orthogonalLoop=1;jettySize=auto;html=1;" edge="1" parent="1" source="kwHS4sfSBA9c8D4gTHH7-5" target="kwHS4sfSBA9c8D4gTHH7-2">
          <mxGeometry relative="1" as="geometry" />
        </mxCell>
        <mxCell id="kwHS4sfSBA9c8D4gTHH7-5" value="Start" style="rounded=1;whiteSpace=wrap;html=1;" vertex="1" parent="1">
          <mxGeometry x="340" y="40" width="120" height="60" as="geometry" />
        </mxCell>
        <mxCell id="kwHS4sfSBA9c8D4gTHH7-8" value="cant ride" style="rounded=1;whiteSpace=wrap;html=1;" vertex="1" parent="1">
          <mxGeometry x="160" y="290" width="120" height="60" as="geometry" />
        </mxCell>
        <mxCell id="kwHS4sfSBA9c8D4gTHH7-9" value="can ride" style="rounded=1;whiteSpace=wrap;html=1;" vertex="1" parent="1">
          <mxGeometry x="540" y="290" width="120" height="60" as="geometry" />
        </mxCell>
      </root>
    </mxGraphModel>
  </diagram>
</mxfile>
